<mxfile host="app.diagrams.net" modified="2023-08-06T02:08:27.786Z" agent="Mozilla/5.0 (Windows NT 10.0; Win64; x64) AppleWebKit/537.36 (KHTML, like Gecko) Chrome/115.0.0.0 Safari/537.36" etag="2Hf91VJd6nc89gKi3xUw" version="21.6.6" type="device">
  <diagram name="Page-1" id="ystaCzPHhYbMvWT9GXGf">
    <mxGraphModel dx="2261" dy="782" grid="0" gridSize="10" guides="1" tooltips="1" connect="1" arrows="1" fold="1" page="1" pageScale="1" pageWidth="827" pageHeight="1169" math="0" shadow="0">
      <root>
        <mxCell id="0" />
        <mxCell id="1" parent="0" />
        <mxCell id="8wGoQV0AuYZkivisRy0g-5" value="" style="edgeStyle=orthogonalEdgeStyle;rounded=0;orthogonalLoop=1;jettySize=auto;html=1;" edge="1" parent="1" source="8wGoQV0AuYZkivisRy0g-3" target="8wGoQV0AuYZkivisRy0g-4">
          <mxGeometry relative="1" as="geometry" />
        </mxCell>
        <mxCell id="8wGoQV0AuYZkivisRy0g-9" value="" style="edgeStyle=orthogonalEdgeStyle;rounded=0;orthogonalLoop=1;jettySize=auto;html=1;" edge="1" parent="1" source="8wGoQV0AuYZkivisRy0g-3" target="8wGoQV0AuYZkivisRy0g-8">
          <mxGeometry relative="1" as="geometry">
            <Array as="points">
              <mxPoint x="37" y="340" />
            </Array>
          </mxGeometry>
        </mxCell>
        <mxCell id="8wGoQV0AuYZkivisRy0g-3" value="C1&lt;br&gt;FOO" style="rounded=1;whiteSpace=wrap;html=1;" vertex="1" parent="1">
          <mxGeometry x="-18" y="155" width="120" height="60" as="geometry" />
        </mxCell>
        <mxCell id="8wGoQV0AuYZkivisRy0g-7" value="" style="edgeStyle=orthogonalEdgeStyle;rounded=0;orthogonalLoop=1;jettySize=auto;html=1;" edge="1" parent="1" source="8wGoQV0AuYZkivisRy0g-4" target="8wGoQV0AuYZkivisRy0g-6">
          <mxGeometry relative="1" as="geometry" />
        </mxCell>
        <mxCell id="8wGoQV0AuYZkivisRy0g-4" value="C3&lt;br&gt;BAR" style="whiteSpace=wrap;html=1;rounded=1;" vertex="1" parent="1">
          <mxGeometry x="182" y="155" width="120" height="60" as="geometry" />
        </mxCell>
        <mxCell id="8wGoQV0AuYZkivisRy0g-6" value="C4" style="whiteSpace=wrap;html=1;rounded=1;" vertex="1" parent="1">
          <mxGeometry x="382" y="155" width="120" height="60" as="geometry" />
        </mxCell>
        <mxCell id="8wGoQV0AuYZkivisRy0g-10" style="edgeStyle=orthogonalEdgeStyle;rounded=0;orthogonalLoop=1;jettySize=auto;html=1;exitX=1;exitY=0.5;exitDx=0;exitDy=0;entryX=0.5;entryY=1;entryDx=0;entryDy=0;" edge="1" parent="1" source="8wGoQV0AuYZkivisRy0g-8" target="8wGoQV0AuYZkivisRy0g-6">
          <mxGeometry relative="1" as="geometry" />
        </mxCell>
        <mxCell id="8wGoQV0AuYZkivisRy0g-8" value="C2&lt;br&gt;FIZX" style="rounded=1;whiteSpace=wrap;html=1;" vertex="1" parent="1">
          <mxGeometry x="174" y="310" width="120" height="60" as="geometry" />
        </mxCell>
        <mxCell id="8wGoQV0AuYZkivisRy0g-11" value="merge exemplo" style="rounded=1;whiteSpace=wrap;html=1;" vertex="1" parent="1">
          <mxGeometry x="-20" width="120" height="60" as="geometry" />
        </mxCell>
        <mxCell id="8wGoQV0AuYZkivisRy0g-28" value="" style="edgeStyle=orthogonalEdgeStyle;rounded=0;orthogonalLoop=1;jettySize=auto;html=1;" edge="1" parent="1" source="8wGoQV0AuYZkivisRy0g-13" target="8wGoQV0AuYZkivisRy0g-27">
          <mxGeometry relative="1" as="geometry" />
        </mxCell>
        <mxCell id="8wGoQV0AuYZkivisRy0g-13" value="C5&lt;br&gt;BUzz" style="rounded=1;whiteSpace=wrap;html=1;" vertex="1" parent="1">
          <mxGeometry x="578" y="580" width="120" height="60" as="geometry" />
        </mxCell>
        <mxCell id="8wGoQV0AuYZkivisRy0g-14" value="" style="edgeStyle=orthogonalEdgeStyle;rounded=0;orthogonalLoop=1;jettySize=auto;html=1;" edge="1" parent="1" source="8wGoQV0AuYZkivisRy0g-16" target="8wGoQV0AuYZkivisRy0g-18">
          <mxGeometry relative="1" as="geometry" />
        </mxCell>
        <mxCell id="8wGoQV0AuYZkivisRy0g-15" value="" style="edgeStyle=orthogonalEdgeStyle;rounded=0;orthogonalLoop=1;jettySize=auto;html=1;" edge="1" parent="1" source="8wGoQV0AuYZkivisRy0g-16" target="8wGoQV0AuYZkivisRy0g-21">
          <mxGeometry relative="1" as="geometry">
            <Array as="points">
              <mxPoint x="35" y="765" />
            </Array>
          </mxGeometry>
        </mxCell>
        <mxCell id="8wGoQV0AuYZkivisRy0g-16" value="C1&lt;br&gt;FOO" style="rounded=1;whiteSpace=wrap;html=1;" vertex="1" parent="1">
          <mxGeometry x="-20" y="580" width="120" height="60" as="geometry" />
        </mxCell>
        <mxCell id="8wGoQV0AuYZkivisRy0g-17" value="" style="edgeStyle=orthogonalEdgeStyle;rounded=0;orthogonalLoop=1;jettySize=auto;html=1;" edge="1" parent="1" source="8wGoQV0AuYZkivisRy0g-18" target="8wGoQV0AuYZkivisRy0g-19">
          <mxGeometry relative="1" as="geometry" />
        </mxCell>
        <mxCell id="8wGoQV0AuYZkivisRy0g-18" value="C3&lt;br&gt;BAR" style="whiteSpace=wrap;html=1;rounded=1;" vertex="1" parent="1">
          <mxGeometry x="180" y="580" width="120" height="60" as="geometry" />
        </mxCell>
        <mxCell id="8wGoQV0AuYZkivisRy0g-22" style="edgeStyle=orthogonalEdgeStyle;rounded=0;orthogonalLoop=1;jettySize=auto;html=1;exitX=1;exitY=0.5;exitDx=0;exitDy=0;entryX=0;entryY=0.5;entryDx=0;entryDy=0;" edge="1" parent="1" source="8wGoQV0AuYZkivisRy0g-19" target="8wGoQV0AuYZkivisRy0g-13">
          <mxGeometry relative="1" as="geometry" />
        </mxCell>
        <mxCell id="8wGoQV0AuYZkivisRy0g-25" value="" style="edgeStyle=orthogonalEdgeStyle;rounded=0;orthogonalLoop=1;jettySize=auto;html=1;entryX=0;entryY=0.5;entryDx=0;entryDy=0;exitX=0.5;exitY=1;exitDx=0;exitDy=0;" edge="1" parent="1" source="8wGoQV0AuYZkivisRy0g-13" target="8wGoQV0AuYZkivisRy0g-24">
          <mxGeometry relative="1" as="geometry">
            <mxPoint x="536" y="674" as="sourcePoint" />
          </mxGeometry>
        </mxCell>
        <mxCell id="8wGoQV0AuYZkivisRy0g-19" value="C4" style="whiteSpace=wrap;html=1;rounded=1;" vertex="1" parent="1">
          <mxGeometry x="380" y="580" width="120" height="60" as="geometry" />
        </mxCell>
        <mxCell id="8wGoQV0AuYZkivisRy0g-20" style="edgeStyle=orthogonalEdgeStyle;rounded=0;orthogonalLoop=1;jettySize=auto;html=1;exitX=1;exitY=0.5;exitDx=0;exitDy=0;entryX=0.5;entryY=1;entryDx=0;entryDy=0;" edge="1" parent="1" source="8wGoQV0AuYZkivisRy0g-21" target="8wGoQV0AuYZkivisRy0g-19">
          <mxGeometry relative="1" as="geometry" />
        </mxCell>
        <mxCell id="8wGoQV0AuYZkivisRy0g-21" value="C2&lt;br&gt;FIZX" style="rounded=1;whiteSpace=wrap;html=1;" vertex="1" parent="1">
          <mxGeometry x="172" y="735" width="120" height="60" as="geometry" />
        </mxCell>
        <mxCell id="8wGoQV0AuYZkivisRy0g-29" style="edgeStyle=orthogonalEdgeStyle;rounded=0;orthogonalLoop=1;jettySize=auto;html=1;exitX=1;exitY=0.5;exitDx=0;exitDy=0;entryX=0.5;entryY=1;entryDx=0;entryDy=0;" edge="1" parent="1" source="8wGoQV0AuYZkivisRy0g-24" target="8wGoQV0AuYZkivisRy0g-31">
          <mxGeometry relative="1" as="geometry">
            <mxPoint x="963" y="618" as="targetPoint" />
          </mxGeometry>
        </mxCell>
        <mxCell id="8wGoQV0AuYZkivisRy0g-24" value="Git rebase" style="whiteSpace=wrap;html=1;rounded=1;" vertex="1" parent="1">
          <mxGeometry x="752" y="727" width="120" height="60" as="geometry" />
        </mxCell>
        <mxCell id="8wGoQV0AuYZkivisRy0g-26" value="Rebase branch" style="rounded=1;whiteSpace=wrap;html=1;" vertex="1" parent="1">
          <mxGeometry x="-20" y="475" width="120" height="60" as="geometry" />
        </mxCell>
        <mxCell id="8wGoQV0AuYZkivisRy0g-32" style="edgeStyle=orthogonalEdgeStyle;rounded=0;orthogonalLoop=1;jettySize=auto;html=1;exitX=1;exitY=0.5;exitDx=0;exitDy=0;" edge="1" parent="1" source="8wGoQV0AuYZkivisRy0g-27" target="8wGoQV0AuYZkivisRy0g-31">
          <mxGeometry relative="1" as="geometry" />
        </mxCell>
        <mxCell id="8wGoQV0AuYZkivisRy0g-27" value="C7&lt;br&gt;BLA" style="rounded=1;whiteSpace=wrap;html=1;" vertex="1" parent="1">
          <mxGeometry x="750" y="580" width="120" height="60" as="geometry" />
        </mxCell>
        <mxCell id="8wGoQV0AuYZkivisRy0g-31" value="C6&lt;br&gt;REBASE BRACH" style="whiteSpace=wrap;html=1;rounded=1;" vertex="1" parent="1">
          <mxGeometry x="945" y="580" width="120" height="60" as="geometry" />
        </mxCell>
      </root>
    </mxGraphModel>
  </diagram>
</mxfile>
